<?xml version="1.0" encoding="UTF-8"?>
<svg id="Layer_1" data-name="Layer 1" xmlns="http://www.w3.org/2000/svg" viewBox="0 0 468.33 468.33">
  <defs>
    <style>
      .cls-1 {
        fill: #422426;
      }

      .cls-2 {
        fill: #eee9e0;
      }
    </style>
  </defs>
  <circle class="cls-1" cx="234.16" cy="234.16" r="234.16"/>
  <g>
    <path class="cls-2" d="M262.37,107.67c0,12.66-10.27,22.93-22.93,22.93s-22.93-10.27-22.93-22.93,10.27-22.93,22.93-22.93,22.93,10.27,22.93,22.93Z"/>
    <path class="cls-2" d="M192.32,361.44c0,8.6-6.97,15.56-15.56,15.56s-15.56-6.96-15.56-15.56,6.97-15.56,15.56-15.56,15.56,6.97,15.56,15.56Z"/>
    <path class="cls-2" d="M277.2,361.44c0,8.6-6.96,15.56-15.56,15.56s-15.56-6.96-15.56-15.56,6.97-15.56,15.56-15.56,15.56,6.97,15.56,15.56Z"/>
    <path class="cls-2" d="M303.93,207.73c0,6.17-5,11.17-11.17,11.17s-11.17-5-11.17-11.17,5-11.17,11.17-11.17,11.17,5,11.17,11.17Z"/>
    <path class="cls-2" d="M192.32,361.44c0,8.6-6.97,15.56-15.56,15.56s-15.56-6.96-15.56-15.56,6.97-15.56,15.56-15.56,15.56,6.97,15.56,15.56Z"/>
    <path class="cls-2" d="M204.27,139.91c0,10.48-8.5,18.97-18.98,18.97s-18.97-8.5-18.97-18.97,8.49-18.98,18.97-18.98,18.98,8.5,18.98,18.98Z"/>
    <path class="cls-2" d="M192.32,188.75c0,10.48-8.5,18.98-18.98,18.98s-18.98-8.5-18.98-18.98c0-2.02.32-3.97.9-5.8,2.45-7.64,9.62-13.17,18.07-13.17,10.48,0,18.98,8.5,18.98,18.98Z"/>
    <polygon class="cls-2" points="258.6 158.89 258.95 179.45 295.11 196.81 286.37 216.88 239.44 196.56 276.2 355.99 246.08 363.86 222.37 253.6 192.11 363.86 161.38 359.11 208.22 153.6 258.6 158.89"/>
    <polygon class="cls-2" points="191.31 194.81 203.32 145.83 166.57 136.88 155.27 182.95 191.31 194.81"/>
    <path class="cls-2" d="M258.95,155.85c0,10.48-11.36,18.98-25.37,18.98s-25.37-8.5-25.37-18.98,11.36-18.98,25.37-18.98,25.37,8.5,25.37,18.98Z"/>
    <g>
      <rect class="cls-2" x="185.31" y="258.11" width="223.41" height="14.72" transform="translate(6.97 538.52) rotate(-85.06)"/>
      <path class="cls-2" d="M313.94,155c-.35,4.05-3.92,7.05-7.96,6.7-4.05-.35-7.05-3.92-6.7-7.96.35-4.05,3.92-7.05,7.96-6.7,4.05.35,7.05,3.92,6.7,7.97Z"/>
      <path class="cls-2" d="M294.78,376.86c-.35,4.05-3.92,7.05-7.96,6.7-4.05-.35-7.05-3.92-6.7-7.96.35-4.05,3.91-7.05,7.96-6.7,4.05.35,7.05,3.92,6.7,7.96Z"/>
    </g>
  </g>
</svg>