<?xml version="1.0" encoding="UTF-8"?>
<svg id="Layer_1" data-name="Layer 1" xmlns="http://www.w3.org/2000/svg" viewBox="0 0 468.33 468.33">
  <defs>
    <style>
      .cls-1 {
        fill: #422426;
      }

      .cls-2 {
        fill: #eee9e0;
      }
    </style>
  </defs>
  <circle class="cls-1" cx="234.16" cy="234.16" r="234.16"/>
  <g>
    <path class="cls-2" d="M183.57,81.63c25.62,0,46.41,23.05,46.41,51.47,0,19.86-10.04,35.01-25,45.68-1.71,1.22-13.5,11.22-14.72,30.5-2.33,37.04,7.26,102.67,12.35,166.42.59,7.34-11.91,11.15-19.04,11.15s-19.63-3.82-19.04-11.15c5.08-63.75,14.68-129.38,12.34-166.42-1.21-19.28-13.01-29.28-14.71-30.5-14.96-10.68-25.01-25.82-25.01-45.68,0-28.42,20.78-51.47,46.42-51.47Z"/>
    <path class="cls-2" d="M302.62,386.87c7.01,0,19.33-3.74,18.76-10.94-4.98-62.56-14.38-126.95-12.1-163.29,1.19-18.92,12.76-28.74,14.44-29.93,0,0,8.35-10.65,7.39-23-.95-12.37-5.7-78.24-5.7-78.24h-5.15v72.74s0,2.75-2.87,2.75-2.85-2.75-2.85-2.75l-3.8-72.74h-3.82l-.94,72.74s0,2.4-3.34,2.4-3.33-2.4-3.33-2.4l-.95-72.74h-3.81l-3.81,72.74s0,2.75-2.85,2.75-2.87-2.75-2.87-2.75v-72.74h-5.15s-4.76,65.87-5.71,78.24c-.95,12.35,7.4,23,7.4,23,1.67,1.19,13.24,11.01,14.43,29.93,2.29,36.34-7.12,100.73-12.1,163.29-.57,7.19,11.76,10.94,18.76,10.94Z"/>
  </g>
</svg>