<?xml version="1.0" encoding="UTF-8"?>
<svg version="1.1" xmlns="http://www.w3.org/2000/svg" width="720" height="720">
<path d="M0 0 C0.93328125 0.73863281 1.8665625 1.47726563 2.828125 2.23828125 C8.83530666 7.06977164 14.54163908 12.16394853 20.18359375 17.41015625 C23.27343234 20.25143639 26.44435882 22.97711943 29.671875 25.66015625 C31 27 31 27 31 29 C31.99 29.33 32.98 29.66 34 30 C35.40234375 31.390625 35.40234375 31.390625 36.9375 33.25 C39.61677418 36.4200044 42.37090487 39.48137326 45.21899414 42.49804688 C105.20482846 106.24315928 136.60617193 195.83458739 136.3125 282.5 C136.31034485 283.64640961 136.3081897 284.79281921 136.30596924 285.97396851 C136.25418006 303.15674913 135.8354077 320.01557668 133 337 C132.80132324 338.2173584 132.60264648 339.4347168 132.39794922 340.68896484 C120.69130195 410.46409015 89.82951564 475.65984335 41.3828125 527.42578125 C39.32466446 529.64925594 37.36675656 531.91531996 35.4375 534.25 C34.633125 535.1575 33.82875 536.065 33 537 C32.34 537 31.68 537 31 537 C30.73832031 537.598125 30.47664062 538.19625 30.20703125 538.8125 C28.91972747 541.14547772 27.73452539 542.31679283 25.6875 544 C22.58202323 546.61572417 19.59633325 549.31440032 16.65649414 552.11523438 C8.59761361 559.74827423 -0.06673989 566.42761507 -9 573 C-9.66451172 573.49467773 -10.32902344 573.98935547 -11.01367188 574.49902344 C-23.75558627 583.95127609 -37.27703723 592.06119312 -51 600 C-51.7518457 600.43940918 -52.50369141 600.87881836 -53.27832031 601.33154297 C-75.1402407 613.99319429 -99.76781461 623.13821285 -124 630 C-125.44536133 630.41088867 -125.44536133 630.41088867 -126.91992188 630.83007812 C-138.88524852 634.16494082 -150.94440959 636.66717636 -163.1875 638.75 C-164.34918701 638.94875732 -165.51087402 639.14751465 -166.70776367 639.35229492 C-185.60447304 642.40767111 -204.37497451 643.3806079 -223.5 643.3125 C-225.14242172 643.30926727 -225.14242172 643.30926727 -226.81802368 643.30596924 C-279.82325953 643.139054 -331.0651101 631.82831653 -379 609 C-379.88155762 608.58379395 -380.76311523 608.16758789 -381.67138672 607.73876953 C-414.80035933 592.00058247 -447.91945772 570.37658859 -473.3515625 543.62109375 C-475.01075963 541.90672396 -475.01075963 541.90672396 -477.2109375 540.41015625 C-478.09652344 539.71212891 -478.09652344 539.71212891 -479 539 C-479 538.34 -479 537.68 -479 537 C-479.99 536.67 -480.98 536.34 -482 536 C-483.40234375 534.609375 -483.40234375 534.609375 -484.9375 532.75 C-487.61677418 529.5799956 -490.37090487 526.51862674 -493.21899414 523.50195312 C-553.20482846 459.75684072 -584.60617193 370.16541261 -584.3125 283.5 C-584.31034485 282.35359039 -584.3081897 281.20718079 -584.30596924 280.02603149 C-584.25418006 262.84325087 -583.8354077 245.98442332 -581 229 C-580.80132324 227.7826416 -580.60264648 226.5652832 -580.39794922 225.31103516 C-573.14397021 182.07514678 -558.82876338 141.01690092 -537 103 C-536.59394531 102.28875977 -536.18789063 101.57751953 -535.76953125 100.84472656 C-527.31265919 86.11735807 -517.55400414 72.29150277 -507 59 C-505.89205078 57.60007813 -505.89205078 57.60007813 -504.76171875 56.171875 C-500.33366003 50.66629577 -495.70345888 45.39735415 -490.89501953 40.2253418 C-488.32607641 37.46205891 -485.84116342 34.65784648 -483.4375 31.75 C-482.633125 30.8425 -481.82875 29.935 -481 29 C-480.34 29 -479.68 29 -479 29 C-478.73832031 28.401875 -478.47664063 27.80375 -478.20703125 27.1875 C-476.91972747 24.85452228 -475.73452539 23.68320717 -473.6875 22 C-470.58180532 19.3840923 -467.59600377 16.68509106 -464.65576172 13.88427734 C-456.59859558 6.25182238 -447.91958884 -0.41276456 -439 -7 C-438.41138184 -7.44053711 -437.82276367 -7.88107422 -437.21630859 -8.33496094 C-419.62603703 -21.48531861 -400.61175338 -32.19044794 -381 -42 C-379.89591797 -42.56195068 -379.89591797 -42.56195068 -378.76953125 -43.13525391 C-285.02614232 -90.69886386 -166.37667909 -88.33193054 0 0 Z " fill="#D38262" transform="translate(584,77)"/>
<path d="M0 0 C2.875 2.4375 2.875 2.4375 5 5 C5.33 5.33 5.66 5.66 6 6 C6.08854347 8.6660154 6.115319 11.30669399 6.09765625 13.97265625 C6.09664917 14.67934448 6.09564209 15.38603271 6.09460449 16.11413574 C6.08935745 18.76360691 6.07539629 21.41305502 6.0625 24.0625 C6.041875 29.981875 6.02125 35.90125 6 42 C19.86 42 33.72 42 48 42 C47.8024623 30.04789006 47.8024623 30.04789006 47.54956055 18.09692383 C47.53494942 16.5919777 47.52221022 15.08701174 47.51171875 13.58203125 C47.48613892 12.8087146 47.46055908 12.03539795 47.4342041 11.23864746 C47.43081208 7.0250792 47.64663998 5.45814774 50.31176758 2.00268555 C53 0 53 0 56.5 -0.625 C60.84433642 0.15077436 62.26201776 1.61778665 65 5 C66.55977064 8.11954128 66.12104126 11.42959384 66.09765625 14.8515625 C66.09553383 16.01261002 66.09553383 16.01261002 66.09336853 17.19711304 C66.08776403 19.67311442 66.07521083 22.14902588 66.0625 24.625 C66.05748558 26.30208203 66.05292257 27.97916547 66.04882812 29.65625 C66.03779315 33.77086806 66.02052554 37.88541878 66 42 C67.32064453 41.89558594 67.32064453 41.89558594 68.66796875 41.7890625 C69.82941406 41.73492187 70.99085938 41.68078125 72.1875 41.625 C73.91033203 41.52058594 73.91033203 41.52058594 75.66796875 41.4140625 C79.19425394 42.03415954 80.96629523 42.82133372 83.08197021 45.76681519 C85.27393684 51.09895871 84.71024343 57.11003572 84.6640625 62.78515625 C84.66743681 64.24759829 84.67229453 65.71003758 84.67855835 67.17247009 C84.68591724 70.23658975 84.67526832 73.29997922 84.65185547 76.36401367 C84.62354356 80.25528339 84.63966287 84.1448151 84.66971779 88.03601933 C84.68797056 91.0588183 84.68194881 94.08122016 84.66907883 97.10403252 C84.66578482 98.53628185 84.66968782 99.9685694 84.68147659 101.400774 C84.78218657 117.08960597 79.71114024 131.0014293 69 142.625 C59.7889364 151.34150985 49.45755644 156.01341293 37 158 C38.60593278 169.35422649 40.46046806 178.94209955 49.1875 187.125 C62.08225366 199.30178297 70.0520502 216.30738805 71.18969727 233.94018555 C71.26664996 236.94233055 71.27815507 239.93453327 71.25 242.9375 C71.24250732 243.99509521 71.23501465 245.05269043 71.22729492 246.14233398 C70.78047655 278.47550898 54.01806467 306.6016645 31.31640625 328.71362305 C10.61592843 348.19130145 -15.25829587 361.5904843 -42.99316406 367.56201172 C-44.91622298 367.98171582 -46.82961653 368.44499024 -48.7421875 368.91015625 C-83.81089582 376.66333793 -124.46962544 371.04786034 -155 352 C-167.54110243 343.97660483 -167.54110243 343.97660483 -170.62992859 339.79167175 C-173.84929124 335.68623453 -176.76314865 332.92676317 -182.02203369 332.20191956 C-187.05474967 331.82884864 -192.08055797 331.96367872 -197.12109375 332.078125 C-198.98998357 332.08518014 -200.85889654 332.08752106 -202.72779846 332.08538818 C-207.63197018 332.08907796 -212.53420749 332.14198524 -217.43786621 332.2098999 C-225.28050409 332.31474288 -233.12291514 332.36404667 -240.96620369 332.37612152 C-243.69105879 332.39033787 -246.41389943 332.43760543 -249.13829041 332.48809814 C-259.6875865 332.5973138 -267.34207108 331.85916248 -275.65625 324.71875 C-276.56890625 323.62046875 -276.56890625 323.62046875 -277.5 322.5 C-278.44359375 321.40171875 -278.44359375 321.40171875 -279.40625 320.28125 C-282.1380798 316.37098381 -283.24849194 312.88699794 -283.26285553 308.13353443 C-283.27053782 307.17529579 -283.27822011 306.21705715 -283.2861352 305.22978097 C-283.28440223 304.18504654 -283.28266927 303.14031211 -283.28088379 302.06391907 C-283.28682603 300.94780925 -283.29276828 299.83169944 -283.29889059 298.68176812 C-283.31626265 294.93405541 -283.3192809 291.1864705 -283.32226562 287.4387207 C-283.33152213 284.75472918 -283.34153041 282.07074926 -283.35235596 279.38676453 C-283.37949646 272.08910792 -283.39156803 264.79147333 -283.40037727 257.49377465 C-283.40590675 252.93488809 -283.41438232 248.37600998 -283.42338562 243.81712914 C-283.44776792 231.18874933 -283.4683669 218.56037629 -283.4751358 205.93197346 C-283.47557494 205.1240392 -283.47601407 204.31610494 -283.47646651 203.48368783 C-283.47690306 202.67384717 -283.47733962 201.86400652 -283.4777894 201.02962524 C-283.47867633 199.38864664 -283.47956945 197.74766804 -283.48046875 196.10668945 C-283.48091161 195.29271162 -283.48135447 194.47873378 -283.48181075 193.64008995 C-283.48970416 180.45534728 -283.52460556 167.27082586 -283.57118779 154.08616862 C-283.61865426 140.54162461 -283.6435413 126.99719151 -283.64587164 113.45256299 C-283.64770301 105.85097175 -283.65915306 98.24966879 -283.69551086 90.64815712 C-283.72636651 84.17430715 -283.73652279 77.70083454 -283.72003466 71.22692499 C-283.71223971 67.92616622 -283.71727593 64.62632273 -283.74214935 61.32562637 C-283.76758133 57.74010043 -283.75584196 54.15651241 -283.73498535 50.57099915 C-283.75109816 49.53741833 -283.76721097 48.50383751 -283.78381205 47.43893605 C-283.68297961 40.00808758 -281.62963949 34.83728832 -277 29 C-270.91844448 23.39456407 -265.52718136 20.75807159 -257.1572876 20.72584534 C-256.14360001 20.71799032 -256.14360001 20.71799032 -255.10943389 20.70997661 C-252.85186687 20.69501159 -250.59452721 20.69427224 -248.33691406 20.69360352 C-246.71532816 20.68597959 -245.09374586 20.67755169 -243.47216797 20.66838074 C-239.07116666 20.64645 -234.67023484 20.63763859 -230.26918507 20.63255429 C-227.51739748 20.6289086 -224.76562802 20.62266738 -222.01384735 20.6155529 C-212.40733543 20.59106196 -202.80087747 20.57800758 -193.19433594 20.57446289 C-184.25051498 20.57082938 -175.30703755 20.54094639 -166.36332154 20.49905831 C-158.67650756 20.46432366 -150.98980724 20.44891389 -143.30291533 20.44821686 C-138.7155556 20.44742503 -134.12854579 20.43873016 -129.5412674 20.41021919 C-125.22369384 20.38398446 -120.90675894 20.3818632 -116.58914185 20.39787483 C-115.00937249 20.39968513 -113.42956596 20.39303653 -111.8498764 20.37705612 C-101.71287819 20.28080564 -94.3588585 21.11529759 -86.66015625 28.1328125 C-86.13292969 28.79023438 -85.60570312 29.44765625 -85.0625 30.125 C-84.51722656 30.78757813 -83.97195313 31.45015625 -83.41015625 32.1328125 C-79.73138184 37.00387667 -78.8790615 40.77422154 -78.86577892 46.78837872 C-78.86132108 47.72920038 -78.85686324 48.67002204 -78.85227031 49.63935345 C-78.85245467 50.66463314 -78.85263903 51.68991283 -78.85282898 52.7462616 C-78.84915229 53.84195365 -78.8454756 54.9376457 -78.8416875 56.06654054 C-78.83065742 59.74513007 -78.82680796 63.42369134 -78.82299805 67.10229492 C-78.81673295 69.73702156 -78.81009877 72.37174519 -78.80308533 75.00646973 C-78.78334905 82.91699269 -78.773259 90.82751688 -78.76435754 98.7380583 C-78.7599706 102.46602665 -78.7546049 106.19399359 -78.74936867 109.92196083 C-78.73236038 122.31872735 -78.71786647 134.71549301 -78.71061993 147.1122694 C-78.70871014 150.32720631 -78.70678979 153.5421432 -78.70483398 156.75708008 C-78.70435024 157.55610484 -78.7038665 158.3551296 -78.7033681 159.17836723 C-78.69506866 172.12055721 -78.66973142 185.06265473 -78.63725331 198.00480434 C-78.60416009 211.30073867 -78.58616918 224.59662605 -78.58297569 237.89260179 C-78.58081285 245.35440039 -78.57209723 252.8160641 -78.54651451 260.27782249 C-78.52477667 266.63266858 -78.51677223 272.987347 -78.52648129 279.34222605 C-78.53101697 282.58205083 -78.52698742 285.82145874 -78.50971985 289.06125069 C-78.49201347 292.58073088 -78.49910205 296.09933912 -78.51225281 299.61882019 C-78.50128356 300.63294627 -78.49031432 301.64707235 -78.47901267 302.69192952 C-78.54920115 310.4941501 -80.15458101 317.41113507 -85.078125 323.62109375 C-85.79484375 324.22050781 -86.5115625 324.81992187 -87.25 325.4375 C-87.95640625 326.05496094 -88.6628125 326.67242188 -89.390625 327.30859375 C-96.21178813 331.7300962 -102.48073997 332.45674066 -110.40625 332.51171875 C-111.85420959 332.53864555 -111.85420959 332.53864555 -113.3314209 332.56611633 C-116.38757068 332.61991198 -119.44356706 332.65401606 -122.5 332.6875 C-124.58335454 332.72070022 -126.66668891 332.75519236 -128.75 332.79101562 C-133.83322209 332.87562067 -138.91640112 332.94257792 -144 333 C-131.53406451 339.50326472 -131.53406451 339.50326472 -118.375 344.375 C-117.65828125 344.60832031 -116.9415625 344.84164063 -116.203125 345.08203125 C-104.47251689 348.69930936 -92.38915558 349.3669048 -80.1875 349.3125 C-78.87305908 349.30758545 -77.55861816 349.3026709 -76.2043457 349.29760742 C-66.44671136 349.18013266 -57.46110936 348.42367925 -48 346 C-47.31228516 345.82839355 -46.62457031 345.65678711 -45.91601562 345.47998047 C-35.12730434 342.7387071 -25.01813094 338.82842794 -15 334 C-13.86691406 333.45472656 -12.73382813 332.90945313 -11.56640625 332.34765625 C-3.26572891 328.11261679 3.82416241 322.87635169 11 317 C11.75152344 316.40316406 12.50304687 315.80632812 13.27734375 315.19140625 C18.99436792 310.470616 23.48059443 304.84910809 28 299 C28.70511719 298.09894531 29.41023438 297.19789063 30.13671875 296.26953125 C38.60248485 285.09472 43.22787821 273.34519581 47 260 C47.18175781 259.37375732 47.36351562 258.74751465 47.55078125 258.10229492 C48.48013194 253.75303473 48.18470913 249.24160683 48.1875 244.8125 C48.19974609 243.80896484 48.21199219 242.80542969 48.22460938 241.77148438 C48.25437778 226.52013761 43.80689086 215.5701161 34 204 C22.12715136 189.59160962 15.52241901 177.12977195 16 158 C15.34515625 157.85304688 14.6903125 157.70609375 14.015625 157.5546875 C-0.93711344 153.87986195 -13.13606235 146.63547242 -21.875 133.6875 C-28.34040314 122.36559619 -30.78470015 112.21849701 -30.734375 99.28515625 C-30.7428495 97.8159465 -30.75249613 96.34674309 -30.76324463 94.87754822 C-30.77949193 91.82591848 -30.77705637 88.77501668 -30.76171875 85.72338867 C-30.74431343 81.8233689 -30.78185588 77.92600793 -30.83398056 74.02637577 C-30.86710215 71.00383674 -30.86765888 67.98193855 -30.85883331 64.95925713 C-30.85919162 63.52117945 -30.87038602 62.08305966 -30.89293671 60.64515877 C-31.04295446 49.63454721 -31.04295446 49.63454721 -28.57507324 45.76681519 C-25.87380888 43.24899902 -23.74755697 42.15256265 -20.12890625 41.4140625 C-19.28199219 41.48367187 -18.43507813 41.55328125 -17.5625 41.625 C-16.69753906 41.67914063 -15.83257812 41.73328125 -14.94140625 41.7890625 C-14.30074219 41.85867187 -13.66007812 41.92828125 -13 42 C-13.02094727 40.93563721 -13.04189453 39.87127441 -13.06347656 38.7746582 C-13.13603962 34.81450934 -13.18185851 30.8544189 -13.21972656 26.89379883 C-13.23980505 25.18178414 -13.26707392 23.46983772 -13.30175781 21.75805664 C-13.35044401 19.29295992 -13.37300573 16.8287721 -13.390625 14.36328125 C-13.41127014 13.60163162 -13.43191528 12.83998199 -13.45318604 12.05525208 C-13.45475467 8.31508391 -13.14053729 6.21902502 -11.10058594 3.03979492 C-7.52289589 -0.43435667 -4.93581708 -0.5019475 0 0 Z " fill="#EEE9E0" transform="translate(455,193)"/>
<path d="M0 0 C37.3415625 -0.0309375 37.3415625 -0.0309375 75.4375 -0.0625 C83.31165771 -0.071604 91.18581543 -0.08070801 99.29858398 -0.09008789 C108.87902832 -0.09460449 108.87902832 -0.09460449 113.35731506 -0.09544373 C116.49977823 -0.09637921 119.64222468 -0.10014184 122.78468323 -0.10557556 C126.78547678 -0.11240249 130.7862458 -0.11449715 134.78704464 -0.11307228 C136.26008781 -0.1133705 137.73313178 -0.11537235 139.20616996 -0.11921513 C141.18650772 -0.12414385 143.16685882 -0.12240374 145.14720154 -0.12025452 C146.25980567 -0.12117631 147.3724098 -0.1220981 148.51872921 -0.12304783 C151 0 151 0 152 1 C152.0973362 2.37517075 152.12555411 3.75530756 152.12584114 5.13391876 C152.12844889 6.03052577 152.13105664 6.92713279 152.13374341 7.85090971 C152.13151268 8.84728846 152.12928196 9.84366721 152.12698364 10.87023926 C152.12854363 11.91986107 152.13010362 12.96948289 152.13171089 14.05091143 C152.13572584 17.59710593 152.13252933 21.14325824 152.12939453 24.68945312 C152.13074835 27.21996587 152.13252818 29.75047843 152.13470459 32.2809906 C152.13880507 38.45815285 152.13818557 44.63529926 152.13529195 50.81246173 C152.13303814 55.830547 152.1327253 60.84862885 152.13381577 65.86671448 C152.133969 66.5795581 152.13412223 67.29240173 152.13428011 68.02684668 C152.13459982 69.47474841 152.13492403 70.92265015 152.1352527 72.37055188 C152.13810766 85.96347051 152.13482022 99.5563824 152.12945233 113.14929992 C152.12498428 124.82528535 152.12576021 136.50126084 152.13037109 148.17724609 C152.13571658 161.71986985 152.13783296 175.2624877 152.13475883 188.80511236 C152.13444026 190.24783675 152.13412589 191.69056113 152.13381577 193.13328552 C152.13366149 193.84322616 152.13350721 194.5531668 152.13334826 195.28462079 C152.13248303 200.29957631 152.13394612 205.31452809 152.13629532 210.32948303 C152.13938465 217.07300114 152.13720095 223.81649749 152.13140106 230.56001472 C152.1300727 233.04293346 152.13046885 235.52585377 152.13266373 238.0087719 C152.13537227 241.38245668 152.13199774 244.75607994 152.12698364 248.12976074 C152.12921436 249.12613949 152.13144509 250.12251824 152.13374341 251.14909029 C152.13113566 252.0456973 152.12852791 252.94230432 152.12584114 253.86608124 C152.12567879 254.64586444 152.12551644 255.42564765 152.12534916 256.22906065 C152 258 152 258 151 259 C149.05105041 259.09664967 147.09854545 259.12187121 145.14720154 259.12025452 C143.87794799 259.12163201 142.60869444 259.12300951 141.30097866 259.12442875 C139.87570105 259.12088148 138.45042366 259.11724358 137.02514648 259.11352539 C135.51316614 259.11321928 134.00118564 259.11335216 132.48920536 259.11389065 C128.42631661 259.11411716 124.36345709 259.10830547 120.30057526 259.10128021 C116.49339197 259.09560119 112.68621592 259.09531796 108.87902832 259.09460449 C97.73184832 259.08934927 86.58467379 259.07538822 75.4375 259.0625 C50.543125 259.041875 25.64875 259.02125 0 259 C0 173.53 0 88.06 0 0 Z " fill="#D38262" transform="translate(198,240)"/>
<path d="M0 0 C0.77230453 -0.01409912 1.54460907 -0.02819824 2.34031677 -0.04272461 C3.17318207 -0.03260345 4.00604736 -0.0224823 4.864151 -0.01205444 C5.75257187 -0.02081604 6.64099274 -0.02957764 7.55633545 -0.03860474 C10.48764663 -0.0605774 13.41744411 -0.04605233 16.34877014 -0.02914429 C18.38991586 -0.03251333 20.43105963 -0.03736669 22.47219849 -0.04364014 C26.74855157 -0.05100884 31.02438214 -0.04030692 35.30067444 -0.01693726 C40.77646261 0.01153217 46.25102449 -0.00484225 51.72676754 -0.03479958 C55.94164224 -0.05288787 60.15622738 -0.04710712 64.37111092 -0.03416061 C66.38969125 -0.03082991 68.40829804 -0.03490184 70.42684746 -0.04655838 C73.25170631 -0.05929012 76.07459477 -0.03985689 78.89930725 -0.01205444 C80.14556885 -0.02723618 80.14556885 -0.02723618 81.41700745 -0.04272461 C87.27125866 0.06376127 89.86508963 1.41055123 93.94642639 5.63491821 C97.67618659 13.0944386 94.94642639 22.29492088 94.94642639 30.63491821 C60.62642639 30.63491821 26.30642639 30.63491821 -9.05357361 30.63491821 C-9.05357361 0.02562489 -9.05357361 0.02562489 0 0 Z " fill="#EEE9E0" transform="translate(231.05357360839844,171.36508178710938)"/>
<path d="M0 0 C35.97 0 71.94 0 109 0 C109 5.28 109 10.56 109 16 C73.03 16 37.06 16 0 16 C0 10.72 0 5.44 0 0 Z " fill="#EEE9E0" transform="translate(219,389)"/>
<path d="M0 0 C35.97 0 71.94 0 109 0 C109 4.95 109 9.9 109 15 C73.03 15 37.06 15 0 15 C0 10.05 0 5.1 0 0 Z " fill="#EEE9E0" transform="translate(219,445)"/>
<path d="M0 0 C35.97 0 71.94 0 109 0 C109 4.95 109 9.9 109 15 C73.03 15 37.06 15 0 15 C0 10.05 0 5.1 0 0 Z " fill="#EEE9E0" transform="translate(219,335)"/>
<path d="M0 0 C35.97 0 71.94 0 109 0 C109 4.95 109 9.9 109 15 C73.03 15 37.06 15 0 15 C0 10.05 0 5.1 0 0 Z " fill="#EEE9E0" transform="translate(219,280)"/>
<path d="M0 0 C1 2 1 2 0.30322266 4.58203125 C-0.0727002 5.64808594 -0.44862305 6.71414063 -0.8359375 7.8125 C-1.24070312 8.97007812 -1.64546875 10.12765625 -2.0625 11.3203125 C-2.495625 12.53460938 -2.92875 13.74890625 -3.375 15 C-3.80039062 16.21429688 -4.22578125 17.42859375 -4.6640625 18.6796875 C-7.8103266 27.6206532 -7.8103266 27.6206532 -9 30 C-3.39 30 2.22 30 8 30 C2.27268616 39.54552306 -4.43208419 48.11162594 -11.3125 56.84228516 C-14.95561949 61.50054472 -18.47883548 66.24922248 -22 71 C-23.54109962 67.91780075 -22.20539525 65.20280414 -21.34765625 62.0234375 C-21.16867294 61.33819 -20.98968964 60.6529425 -20.80528259 59.94692993 C-20.23098914 57.75447975 -19.64687365 55.5647826 -19.0625 53.375 C-18.67187732 51.89079558 -18.28189512 50.40642244 -17.89257812 48.921875 C-16.93700343 45.27887381 -15.96820141 41.63975935 -15 38 C-20.28 38 -25.56 38 -31 38 C-28.10182301 33.65273451 -25.20500818 29.7318659 -21.8125 25.8125 C-20.83386082 24.66993384 -19.85600826 23.52669349 -18.87890625 22.3828125 C-18.39437988 21.81594727 -17.90985352 21.24908203 -17.41064453 20.66503906 C-15.32260433 18.20044332 -13.28609243 15.69507181 -11.25 13.1875 C-7.59892814 8.70095765 -3.84814858 4.31834037 0 0 Z " fill="#D38262" transform="translate(492,253)"/>
<path d="M0 0 C0.99 0 1.98 0 3 0 C3.53394179 1.4117783 4.05165104 2.82970244 4.5625 4.25 C4.85253906 5.03890625 5.14257812 5.8278125 5.44140625 6.640625 C6.04522837 9.19103452 5.8473932 10.55322229 5 13 C4.16209211 11.21046815 3.32980604 9.41830305 2.5 7.625 C1.80390625 6.12839844 1.80390625 6.12839844 1.09375 4.6015625 C0 2 0 2 0 0 Z " fill="#D38262" transform="translate(30,505)"/>
<path d="M0 0 C0.33 0.66 0.66 1.32 1 2 C1.99 2.33 2.98 2.66 4 3 C2.35 5.31 0.7 7.62 -1 10 C-2.27351308 7.45297384 -1.80191925 6.5717055 -1.0625 3.875 C-0.86785156 3.15054687 -0.67320312 2.42609375 -0.47265625 1.6796875 C-0.31667969 1.12539063 -0.16070312 0.57109375 0 0 Z " fill="#D38262" transform="translate(471,314)"/>
<path d="M0 0 C0.33 0.66 0.66 1.32 1 2 C0.06421005 4.35981813 -0.93347808 6.69631264 -2 9 C-2.33 8.34 -2.66 7.68 -3 7 C-3.66 6.67 -4.32 6.34 -5 6 C-3.35 4.02 -1.7 2.04 0 0 Z " fill="#D38262" transform="translate(492,253)"/>
</svg>
