<?xml version="1.0" encoding="UTF-8"?>
<svg id="Layer_1" data-name="Layer 1" xmlns="http://www.w3.org/2000/svg" viewBox="0 0 468.33 468.33">
  <defs>
    <style>
      .cls-1 {
        fill: #422426;
      }

      .cls-2 {
        fill: #eee9e0;
      }
    </style>
  </defs>
  <circle class="cls-1" cx="234.16" cy="234.16" r="234.16"/>
  <path class="cls-2" d="M170.82,322.24h112.03c75.61-47.14,66.53-194.32,66.53-194.32v-2.18H104.55v2.18s-9.33,147.18,66.27,194.32h0ZM170.82,322.24,359.36,337.98H96.58c-5.72,0-8.74,8.03-4.94,13.08l11.85,15.73c1.25,1.67,3.04,2.63,4.93,2.63h239.1c1.88,0,3.68-.97,4.93-2.63l11.83-15.73c3.82-5.05.79-13.08-4.92-13.08h0ZM359.36,337.98,412.49,190.1c0-52-41.23-48.86-49.5-47.69.03,6.52-.14,14.82-.65,24.3,6.02-1.62,29.38-7.05,28.06,23.05,0,0-2.42,40.97-41.18,57.02-3.67,12.43-8.3,24.74-14.16,36.33,79.28-36.84,77.43-93,77.43-93h0ZM412.49,190.1"/>
</svg>