<?xml version="1.0" encoding="UTF-8"?>
<svg id="Layer_1" data-name="Layer 1" xmlns="http://www.w3.org/2000/svg" viewBox="0 0 468.33 468.33">
  <defs>
    <style>
      .cls-1 {
        fill: #422426;
      }

      .cls-2 {
        fill: #eee9e0;
      }
    </style>
  </defs>
  <circle class="cls-1" cx="234.16" cy="234.16" r="234.16"/>
  <path class="cls-2" d="M72.19,107c-.27,1.49-.19,2.33.14,3.81,1.07,4.78,5.54,6.77,10.66,7.69,10.28,1.84,19.95,3.8,30.1,6.17,1.64.38,2.62.86,2.94,2.82,3.4,20.96,5.44,33.29,8.97,54.22,3.53,20.93,7.07,41.87,10.6,62.8,2.89,17.13,5.79,34.26,8.68,51.38,1.07,6.31,4.86,9.39,11.69,9.39,63.99,0,116.48,0,180.47,0h3.74c-.29,1.36-1.15,3.87-1.5,4.89-2.04,5.9-2.34,6.48-2.98,8.67-.4,1.36-1.03,2.04-2.58,1.93-1.07-.08-2.15-.01-3.23-.01h-35.8c-14.05,0-27.76,0-41.35,0-24.42,0-48.48,0-73.52,0-14.03,0-28.36,0-43.23,0-3.95,0-7.66.53-10.34,3.75-2.58,3.09-2.92,6.51-1.46,9.96,1.4,3.34,4.3,5.29,8.17,5.76,1.15.14,2.32.11,3.49.11,20.85,0,40.74,0,60.22,0,20.14,0,39.85,0,59.74,0,13.13,0,26.35,0,39.82.02,14.59.01,29.47.03,44.88.06,9.51.02,12.14-3.99,13.86-10.41,3.69-13.81,7.33-23.33,11-37.14,4.78-17.95,9.56-35.9,14.37-53.84,5.16-19.25,10.34-38.49,15.54-57.73.13-.47.49-.88.59-1.36.32-1.48.31-3.05,0-4.53-1.15-5.51-6.48-7.53-12.38-8.06-9.18-.82-15.93-1.74-25.12-2.46-20.07-1.57-40.16-3.12-60.23-4.71-20.26-1.61-35.91-3.26-56.16-4.88-25.69-2.05-49.09-4.09-74.79-6.13-10.34-.82-16.09-1.64-26.56-2.47-.27-1.28-1.21-6.89-1.4-8.03-1.61-9.26-2.44-13.51-4.07-22.77-.74-4.22-3.37-6.99-7.75-8.09-6.83-1.71-13.84-3.31-20.74-4.75-7.49-1.55-14.79-3.37-22.42-4.04-1.25-.11-2.54-.11-3.76.12-4.22.8-7.6,3.87-8.32,7.83ZM326.15,285.66c5.3-34.6,12.57-67.55,16.56-102.27,11.02.89,18.69,1.37,29.57,2.61-.19.82-.27,1.23-.38,1.63-4.81,17.94-9.61,35.87-14.43,53.81-3.79,14.12-7.59,28.24-11.44,42.34-.2.71-1.01,1.8-1.56,1.81-6.7.12-11.1.08-18.32.08ZM285.25,285.66c1.78-36.56,5.46-69.95,5.88-106.52,11.18.89,18.79,1.74,29.76,2.61-.07,1.21-.09,2.13-.2,3.04-1.41,12.24-3.76,22.59-5.63,34.77-1.91,12.52-3.79,25.05-5.71,37.57-1.35,8.87-2.71,17.75-4.16,26.6-.11.7-.96,1.84-1.5,1.85-6.78.13-11.26.08-18.45.08ZM239.6,175.44c.55-.27.71-.42.85-.42,10.16.76,18.04,1.51,28.19,2.4.57.05.66,1.33.67,2.04.06,4.43-.23,5.33-.44,9.77-1.33,27.54-2.65,55.08-3.99,82.63-.22,4.5-.45,9-.69,13.63h-19.71c-1.76-38.39-1.72-72.08-4.89-110.05ZM187.9,170.88c.78-.11,1.12-.23,1.46-.21,9.72.77,17.15,1.61,26.88,2.3,2.16.15,2.28,1.26,2.41,2.82,1.51,18.56,1.32,31.91,2.16,50.5.86,19.01,1.7,38.03,2.54,57.05.02.71-.1,1.43-.16,2.22h-19.27c-5.41-40.44-9.12-74.54-16.02-114.69ZM144.58,167.34c.79-.09,2.76-.21,3.18-.17,6.15.48,10,1.02,16.17,1.44,1.73.12,2.41.74,2.69,2.38,2.83,16.63,4.38,26.35,6.62,43.05,2.71,20.2,5.35,40.41,8.03,60.61.47,3.55.98,7.1,1.52,11-6.87,0-11.1.03-17.61-.08-.47-.01-1.23-1.08-1.33-1.72-2.23-15.1-5.16-30.22-7.3-45.33-2.5-17.61-6.49-35.22-8.98-52.83-1.23-8.62-1.36-9.48-2.98-18.36ZM290.51,379.51c0-15.41,13.4-27.95,29.87-27.95s29.87,12.54,29.87,27.95-13.4,27.95-29.87,27.95-29.87-12.54-29.87-27.95ZM309.65,379.51c0,5.53,4.81,10.03,10.72,10.03s10.72-4.5,10.72-10.03-4.81-10.03-10.72-10.03-10.72,4.5-10.72,10.03ZM145.01,379.51c0-15.41,13.4-27.95,29.87-27.95s29.87,12.54,29.87,27.95-13.4,27.95-29.87,27.95-29.87-12.54-29.87-27.95ZM164.15,379.51c0,5.53,4.81,10.03,10.72,10.03s10.72-4.5,10.72-10.03-4.81-10.03-10.72-10.03-10.72,4.5-10.72,10.03Z"/>
</svg>