<?xml version="1.0" encoding="UTF-8"?>
<svg xmlns="http://www.w3.org/2000/svg" viewBox="0 0 468.33 468.33" role="img" aria-label="Utsiktspunkt">
  <title>Utsiktspunkt</title>
  <circle cx="234.165" cy="234.165" r="234.165" fill="#422426"/>
  <path d="M 76.66,305.95 L 76.66,355.57 L 76.72,355.73 L 77.09,356.00 L 77.51,356.00 L 78.36,355.57 L 80.86,355.57 L 81.76,355.15 L 84.25,355.15 L 85.16,354.72 L 87.65,354.72 L 88.55,354.30 L 91.05,354.30 L 91.95,353.88 L 94.45,353.88 L 95.35,353.45 L 97.84,353.45 L 98.74,353.03 L 101.24,353.03 L 102.14,352.60 L 104.64,352.60 L 105.54,352.18 L 108.03,352.18 L 108.93,351.75 L 111.43,351.75 L 112.33,351.33 L 114.83,351.33 L 115.73,350.90 L 118.22,350.90 L 119.12,350.48 L 121.62,350.48 L 122.52,350.05 L 125.02,350.05 L 125.92,349.63 L 128.41,349.63 L 129.32,349.21 L 131.81,349.21 L 132.71,348.78 L 135.21,348.78 L 136.11,348.36 L 138.60,348.36 L 139.51,347.93 L 142.00,347.93 L 142.90,347.51 L 145.40,347.51 L 146.30,347.08 L 148.79,347.08 L 149.70,346.66 L 152.19,346.66 L 153.09,346.23 L 155.59,346.23 L 156.49,345.81 L 158.98,345.81 L 159.89,345.38 L 162.38,345.38 L 163.28,344.96 L 165.78,344.96 L 166.68,344.53 L 169.17,344.53 L 170.08,344.11 L 172.57,344.11 L 173.47,343.69 L 175.97,343.69 L 176.87,343.26 L 178.94,343.26 L 179.84,342.84 L 182.34,342.84 L 183.24,342.41 L 185.73,342.41 L 186.64,341.99 L 189.13,341.99 L 190.03,341.56 L 192.53,341.56 L 193.43,341.14 L 195.92,341.14 L 196.83,340.71 L 198.21,340.66 L 198.47,340.29 L 198.47,320.81 L 198.42,320.65 L 198.05,320.39 L 195.55,320.39 L 194.65,319.96 L 192.16,319.96 L 191.25,319.54 L 188.76,319.54 L 187.86,319.11 L 185.36,319.11 L 184.46,318.69 L 181.97,318.69 L 181.06,318.26 L 178.57,318.26 L 177.67,317.84 L 175.17,317.84 L 174.27,317.41 L 171.78,317.41 L 170.87,316.99 L 168.38,316.99 L 167.48,316.56 L 164.98,316.56 L 164.08,316.14 L 161.58,316.14 L 160.68,315.71 L 158.19,315.71 L 157.29,315.29 L 155.22,315.29 L 154.31,314.87 L 151.82,314.87 L 150.92,314.44 L 148.42,314.44 L 147.52,314.02 L 145.03,314.02 L 144.12,313.59 L 141.63,313.59 L 140.73,313.17 L 138.23,313.17 L 137.33,312.74 L 134.84,312.74 L 133.93,312.32 L 131.44,312.32 L 130.54,311.89 L 128.04,311.89 L 127.14,311.47 L 124.64,311.47 L 123.74,311.04 L 121.25,311.04 L 120.35,310.62 L 117.85,310.62 L 116.95,310.19 L 114.45,310.19 L 113.55,309.77 L 111.06,309.77 L 110.16,309.35 L 107.66,309.35 L 106.76,308.92 L 104.26,308.92 L 103.36,308.50 L 100.87,308.50 L 99.96,308.07 L 97.47,308.07 L 96.57,307.65 L 94.07,307.65 L 93.17,307.22 L 90.68,307.22 L 89.77,306.80 L 87.28,306.80 L 86.38,306.37 L 83.88,306.37 L 82.98,305.95 L 80.49,305.95 L 79.58,305.52 L 76.93,305.58 Z M 257.54,328.03 A 23.35,23.35 0 1,0 210.84,328.03 A 23.35,23.35 0 1,0 257.54,328.03 Z M 391.66,300.43 L 391.61,300.27 L 391.24,300.00 L 390.02,300.00 L 389.12,300.43 L 387.05,300.43 L 386.15,300.85 L 383.65,300.85 L 382.75,301.28 L 380.25,301.28 L 379.35,301.70 L 376.86,301.70 L 375.95,302.13 L 373.46,302.13 L 372.56,302.55 L 370.06,302.55 L 369.16,302.98 L 366.67,302.98 L 365.76,303.40 L 363.27,303.40 L 362.37,303.83 L 359.87,303.83 L 358.97,304.25 L 356.48,304.25 L 355.57,304.68 L 353.08,304.68 L 352.18,305.10 L 349.68,305.10 L 348.78,305.52 L 346.29,305.52 L 345.38,305.95 L 342.89,305.95 L 341.99,306.37 L 339.49,306.37 L 338.59,306.80 L 336.10,306.80 L 335.19,307.22 L 332.70,307.22 L 331.80,307.65 L 329.30,307.65 L 328.40,308.07 L 325.91,308.07 L 325.00,308.50 L 322.51,308.50 L 321.61,308.92 L 319.11,308.92 L 318.21,309.35 L 315.71,309.35 L 314.81,309.77 L 312.32,309.77 L 311.42,310.19 L 308.92,310.19 L 308.02,310.62 L 305.52,310.62 L 304.62,311.04 L 302.13,311.04 L 301.23,311.47 L 298.73,311.47 L 297.83,311.89 L 295.33,311.89 L 294.43,312.32 L 291.94,312.32 L 291.03,312.74 L 288.54,312.74 L 287.64,313.17 L 285.14,313.17 L 284.24,313.59 L 281.75,313.59 L 280.84,314.02 L 278.35,314.02 L 277.45,314.44 L 274.95,314.44 L 274.05,314.87 L 271.34,314.92 L 270.87,315.24 L 270.12,315.34 L 269.86,315.71 L 269.91,334.98 L 270.39,335.51 L 270.71,335.62 L 273.20,335.62 L 274.10,336.04 L 276.60,336.04 L 277.50,336.47 L 280.00,336.47 L 280.90,336.89 L 283.39,336.89 L 284.29,337.32 L 286.79,337.32 L 287.69,337.74 L 290.19,337.74 L 291.09,338.17 L 293.58,338.17 L 294.48,338.59 L 296.98,338.59 L 297.88,339.01 L 300.38,339.01 L 301.28,339.44 L 303.77,339.44 L 304.68,339.86 L 307.17,339.86 L 308.07,340.29 L 310.57,340.29 L 311.47,340.71 L 313.96,340.71 L 314.87,341.14 L 317.36,341.14 L 318.26,341.56 L 320.76,341.56 L 321.66,341.99 L 324.15,341.99 L 325.06,342.41 L 327.55,342.41 L 328.45,342.84 L 330.95,342.84 L 331.85,343.26 L 334.34,343.26 L 335.25,343.69 L 337.74,343.69 L 338.64,344.11 L 341.14,344.11 L 342.04,344.53 L 344.53,344.53 L 345.44,344.96 L 347.93,344.96 L 348.83,345.38 L 351.33,345.38 L 352.23,345.81 L 354.72,345.81 L 355.63,346.23 L 358.12,346.23 L 359.02,346.66 L 361.52,346.66 L 362.42,347.08 L 364.92,347.08 L 365.82,347.51 L 368.31,347.51 L 369.21,347.93 L 371.28,347.93 L 372.19,348.36 L 374.68,348.36 L 375.58,348.78 L 378.08,348.78 L 378.98,349.21 L 381.47,349.21 L 382.38,349.63 L 384.87,349.63 L 385.77,350.05 L 388.27,350.05 L 389.17,350.48 L 391.40,350.43 L 391.66,350.05 Z M 119.23,184.19 L 83.99,219.44 L 83.99,220.02 L 84.79,220.82 L 85.48,221.14 L 86.91,222.52 L 87.60,222.83 L 89.03,224.21 L 89.56,224.43 L 90.73,225.49 L 91.42,225.81 L 92.85,227.19 L 93.54,227.50 L 94.98,228.88 L 95.67,229.20 L 97.10,230.58 L 97.79,230.90 L 99.22,232.28 L 99.75,232.49 L 100.92,233.55 L 101.61,233.87 L 103.04,235.25 L 103.73,235.57 L 105.17,236.95 L 105.86,237.27 L 107.29,238.65 L 107.98,238.97 L 109.41,240.35 L 109.94,240.56 L 111.11,241.62 L 111.80,241.94 L 113.23,243.32 L 113.92,243.64 L 115.36,245.02 L 116.05,245.34 L 117.48,246.72 L 118.01,246.93 L 119.18,247.99 L 119.87,248.31 L 121.30,249.69 L 121.99,250.01 L 123.42,251.39 L 124.11,251.71 L 125.55,253.09 L 126.24,253.40 L 127.67,254.78 L 128.20,255.00 L 129.37,256.06 L 130.06,256.38 L 131.49,257.76 L 132.18,258.08 L 133.61,259.46 L 134.30,259.77 L 135.74,261.15 L 136.43,261.47 L 137.86,262.85 L 138.39,263.06 L 139.56,264.13 L 140.25,264.44 L 141.68,265.82 L 142.37,266.14 L 143.80,267.52 L 144.49,267.84 L 145.93,269.22 L 146.62,269.54 L 148.05,270.92 L 148.58,271.13 L 149.75,272.19 L 150.44,272.51 L 151.87,273.89 L 152.56,274.21 L 154.00,275.59 L 154.69,275.91 L 156.12,277.29 L 156.65,277.50 L 157.82,278.56 L 158.51,278.88 L 159.94,280.26 L 160.63,280.58 L 162.06,281.96 L 162.75,282.28 L 164.19,283.66 L 164.88,283.98 L 166.31,285.36 L 166.84,285.57 L 168.01,286.63 L 168.70,286.95 L 170.13,288.33 L 170.82,288.65 L 172.25,290.03 L 172.94,290.34 L 174.38,291.72 L 175.07,292.04 L 176.50,293.42 L 177.03,293.64 L 178.20,294.70 L 178.89,295.02 L 180.32,296.40 L 181.01,296.71 L 182.44,298.09 L 183.13,298.41 L 184.57,299.79 L 185.10,300.00 L 186.26,301.07 L 186.95,301.38 L 188.39,302.76 L 189.08,303.08 L 190.51,304.46 L 191.20,304.78 L 192.63,306.16 L 193.32,306.48 L 194.76,307.86 L 195.29,308.07 L 196.46,309.13 L 197.15,309.45 L 198.58,310.83 L 199.11,311.04 L 199.80,311.63 L 200.17,311.63 L 214.08,297.72 L 214.08,297.14 L 212.22,295.23 L 211.90,294.54 L 210.10,292.68 L 209.78,291.99 L 207.97,290.13 L 207.65,289.44 L 205.85,287.58 L 205.53,286.89 L 203.73,285.04 L 203.41,284.35 L 201.60,282.49 L 201.29,281.80 L 199.48,279.94 L 199.16,279.25 L 197.36,277.39 L 197.04,276.70 L 195.23,274.85 L 194.92,274.16 L 193.11,272.30 L 192.79,271.61 L 190.99,269.75 L 190.67,269.06 L 188.87,267.20 L 188.55,266.51 L 186.74,264.66 L 186.42,263.97 L 184.62,262.11 L 184.30,261.42 L 182.50,259.56 L 182.18,258.87 L 180.37,257.01 L 180.06,256.32 L 178.25,254.47 L 177.93,253.78 L 176.13,251.92 L 175.81,251.23 L 174.00,249.37 L 173.69,248.68 L 171.88,246.82 L 171.56,246.13 L 169.76,244.28 L 169.44,243.59 L 167.64,241.73 L 167.32,241.04 L 165.51,239.18 L 165.19,238.49 L 163.39,236.63 L 163.07,235.94 L 161.27,234.09 L 160.95,233.40 L 159.14,231.54 L 158.83,230.85 L 157.02,228.99 L 156.70,228.30 L 154.90,226.44 L 154.58,225.75 L 152.77,223.89 L 152.46,223.21 L 150.65,221.35 L 150.33,220.66 L 148.53,218.80 L 148.21,218.11 L 146.41,216.25 L 146.09,215.56 L 144.28,213.70 L 143.96,213.01 L 142.16,211.16 L 141.84,210.47 L 140.04,208.61 L 139.72,207.92 L 137.91,206.06 L 137.60,205.37 L 135.79,203.51 L 135.47,202.82 L 133.67,200.97 L 133.35,200.28 L 131.54,198.42 L 131.23,197.73 L 129.42,195.87 L 129.10,195.18 L 127.30,193.32 L 126.98,192.63 L 125.18,190.78 L 124.86,190.09 L 123.05,188.23 L 122.73,187.54 L 120.93,185.68 L 120.61,184.99 L 119.81,184.19 Z M 342.73,177.83 L 342.15,177.83 L 340.93,179.05 L 340.61,179.74 L 339.23,181.17 L 339.01,181.70 L 337.95,182.87 L 337.63,183.56 L 336.25,184.99 L 335.94,185.68 L 334.56,187.11 L 334.24,187.80 L 332.86,189.24 L 332.54,189.93 L 331.16,191.36 L 330.95,191.89 L 329.89,193.06 L 329.57,193.75 L 328.19,195.18 L 327.87,195.87 L 326.49,197.30 L 326.17,197.99 L 324.79,199.43 L 324.47,200.12 L 323.09,201.55 L 322.88,202.08 L 321.82,203.25 L 321.50,203.94 L 320.12,205.37 L 319.80,206.06 L 318.42,207.49 L 318.10,208.18 L 316.72,209.62 L 316.40,210.31 L 315.02,211.74 L 314.81,212.27 L 313.75,213.44 L 313.43,214.13 L 312.05,215.56 L 311.73,216.25 L 310.35,217.69 L 310.04,218.38 L 308.66,219.81 L 308.44,220.34 L 307.38,221.51 L 307.06,222.20 L 305.68,223.63 L 305.37,224.32 L 303.99,225.75 L 303.67,226.44 L 302.29,227.88 L 301.97,228.57 L 300.59,230.00 L 300.38,230.53 L 299.31,231.70 L 299.00,232.39 L 297.62,233.82 L 297.30,234.51 L 295.92,235.94 L 295.60,236.63 L 294.22,238.07 L 293.90,238.76 L 292.52,240.19 L 292.31,240.72 L 291.25,241.89 L 290.93,242.58 L 289.55,244.01 L 289.23,244.70 L 287.85,246.13 L 287.53,246.82 L 286.15,248.26 L 285.83,248.95 L 284.45,250.38 L 284.24,250.91 L 283.18,252.08 L 282.86,252.77 L 281.48,254.20 L 281.16,254.89 L 279.78,256.32 L 279.46,257.01 L 278.08,258.45 L 277.87,258.98 L 276.81,260.15 L 276.49,260.84 L 275.11,262.27 L 274.79,262.96 L 273.41,264.39 L 273.10,265.08 L 271.72,266.51 L 271.40,267.20 L 270.02,268.64 L 269.80,269.17 L 268.74,270.34 L 268.42,271.03 L 267.04,272.46 L 266.73,273.15 L 265.35,274.58 L 265.03,275.27 L 263.65,276.70 L 263.33,277.39 L 261.95,278.83 L 261.74,279.36 L 260.68,280.53 L 260.36,281.22 L 258.98,282.65 L 258.66,283.34 L 257.28,284.77 L 256.96,285.46 L 255.58,286.89 L 255.26,287.58 L 253.88,289.02 L 253.67,289.55 L 252.61,290.72 L 252.29,291.41 L 250.80,293.00 L 250.49,293.79 L 250.70,294.22 L 264.34,307.81 L 264.55,307.86 L 265.51,307.44 L 267.36,305.63 L 268.05,305.31 L 269.91,303.51 L 270.60,303.19 L 272.46,301.38 L 273.15,301.07 L 275.01,299.26 L 275.70,298.94 L 277.55,297.14 L 278.24,296.82 L 280.10,295.02 L 280.79,294.70 L 282.65,292.89 L 283.34,292.57 L 285.20,290.77 L 285.89,290.45 L 287.74,288.65 L 288.43,288.33 L 290.29,286.52 L 290.98,286.21 L 292.84,284.40 L 293.53,284.08 L 295.39,282.28 L 296.08,281.96 L 297.93,280.15 L 298.62,279.84 L 300.48,278.03 L 301.17,277.71 L 303.03,275.91 L 303.72,275.59 L 305.58,273.79 L 306.27,273.47 L 308.12,271.66 L 308.81,271.34 L 310.67,269.54 L 311.36,269.22 L 313.22,267.42 L 313.91,267.10 L 315.77,265.29 L 316.46,264.98 L 318.32,263.17 L 319.01,262.85 L 320.86,261.05 L 321.55,260.73 L 323.41,258.92 L 324.10,258.61 L 325.96,256.80 L 326.65,256.48 L 328.51,254.68 L 329.20,254.36 L 331.05,252.56 L 331.74,252.24 L 333.60,250.43 L 334.29,250.11 L 336.15,248.31 L 336.84,247.99 L 338.70,246.19 L 339.39,245.87 L 341.24,244.06 L 341.93,243.75 L 343.79,241.94 L 344.48,241.62 L 346.34,239.82 L 347.03,239.50 L 348.89,237.69 L 349.58,237.38 L 351.43,235.57 L 352.12,235.25 L 353.98,233.45 L 354.67,233.13 L 356.53,231.33 L 357.22,231.01 L 359.08,229.20 L 359.77,228.88 L 361.62,227.08 L 362.31,226.76 L 364.17,224.96 L 364.86,224.64 L 366.72,222.83 L 367.41,222.52 L 369.27,220.71 L 369.96,220.39 L 371.81,218.59 L 372.50,218.27 L 374.36,216.46 L 375.05,216.15 L 376.91,214.34 L 377.44,214.13 L 377.92,213.70 L 378.02,213.23 L 377.60,212.64 Z M 206.59,112.33 L 206.17,112.76 L 206.17,113.98 L 206.59,114.88 L 206.59,119.07 L 207.02,119.97 L 207.02,124.17 L 207.44,125.07 L 207.44,129.26 L 207.87,130.16 L 207.87,133.93 L 208.29,134.84 L 208.29,139.03 L 208.72,139.93 L 208.72,144.12 L 209.14,145.03 L 209.14,149.22 L 209.56,150.12 L 209.56,154.31 L 209.99,155.22 L 209.99,158.98 L 210.41,159.89 L 210.41,164.08 L 210.84,164.98 L 210.84,169.17 L 211.26,170.08 L 211.26,174.27 L 211.69,175.17 L 211.69,179.37 L 212.11,180.27 L 212.11,184.04 L 212.54,184.94 L 212.54,189.13 L 212.96,190.03 L 212.96,194.23 L 213.39,195.13 L 213.39,199.32 L 213.81,200.22 L 213.81,204.42 L 214.24,205.32 L 214.24,209.09 L 214.66,209.99 L 214.66,214.18 L 215.08,215.08 L 215.08,219.28 L 215.51,220.18 L 215.51,224.37 L 215.93,225.27 L 215.93,229.47 L 216.36,230.37 L 216.36,234.56 L 216.78,235.47 L 216.78,239.23 L 217.21,240.14 L 217.21,244.33 L 217.63,245.23 L 217.63,249.42 L 218.06,250.33 L 218.06,254.52 L 218.48,255.42 L 218.48,259.61 L 218.91,260.52 L 218.91,264.29 L 219.33,265.19 L 219.33,269.38 L 219.76,270.28 L 219.76,274.48 L 220.18,275.38 L 220.18,279.57 L 220.60,280.47 L 220.60,284.67 L 221.03,285.57 L 221.03,289.34 L 221.45,290.24 L 221.45,291.88 L 221.88,292.31 L 240.93,292.31 L 241.25,292.20 L 241.68,291.78 L 241.78,291.46 L 241.78,287.27 L 242.21,286.36 L 242.21,282.17 L 242.63,281.27 L 242.63,277.50 L 243.06,276.60 L 243.06,272.41 L 243.48,271.50 L 243.48,267.31 L 243.90,266.41 L 243.90,262.22 L 244.33,261.31 L 244.33,257.12 L 244.75,256.22 L 244.75,252.45 L 245.18,251.55 L 245.18,247.35 L 245.60,246.45 L 245.60,242.26 L 246.03,241.36 L 246.03,237.16 L 246.45,236.26 L 246.45,232.49 L 246.88,231.59 L 246.88,227.40 L 247.30,226.50 L 247.30,222.30 L 247.73,221.40 L 247.73,217.21 L 248.15,216.31 L 248.15,212.11 L 248.57,211.21 L 248.57,207.44 L 249.00,206.54 L 249.00,202.35 L 249.42,201.44 L 249.42,197.25 L 249.85,196.35 L 249.85,192.16 L 250.27,191.25 L 250.27,187.49 L 250.70,186.58 L 250.70,182.39 L 251.12,181.49 L 251.12,177.30 L 251.55,176.39 L 251.55,172.20 L 251.97,171.30 L 251.97,167.10 L 252.40,166.20 L 252.40,162.43 L 252.82,161.53 L 252.82,157.34 L 253.25,156.44 L 253.25,152.24 L 253.67,151.34 L 253.67,147.15 L 254.09,146.25 L 254.09,142.48 L 254.52,141.58 L 254.52,137.38 L 254.94,136.48 L 254.94,132.29 L 255.37,131.39 L 255.37,127.19 L 255.79,126.29 L 255.79,122.10 L 256.22,121.19 L 256.22,117.43 L 256.64,116.52 L 256.64,112.76 L 256.22,112.33 Z" fill="#EEE9E0" fill-rule="evenodd"/>

</svg>
