<?xml version="1.0" encoding="UTF-8"?>
<svg id="Layer_1" data-name="Layer 1" xmlns="http://www.w3.org/2000/svg" viewBox="0 0 468.33 468.33">
  <defs>
    <style>
      .cls-1 {
        fill: #D38262;
      }

      .cls-2 {
        fill: #eee9e0;
      }
    </style>
  </defs>
  <circle class="cls-1" cx="234.16" cy="234.16" r="234.16"/>
  <g>
    <path class="cls-2" d="M282.73,126.06c0,11.43-9.26,20.69-20.68,20.69s-20.68-9.26-20.68-20.69,9.26-20.69,20.68-20.69,20.68,9.26,20.68,20.69Z"/>
    <path class="cls-2" d="M256.6,204.35l-21.82-23.02-21.19,25.05,24.96,17.99v-.05c3.99,2.38,6.65,6.73,6.65,11.71v65.8c0,7.53-6.1,13.63-13.64,13.63s-13.63-6.1-13.63-13.63v-52.17l-48.48-27.26c-4.64-3.8-7.6-9.56-7.6-16.02,0-5.71,2.31-10.88,6.05-14.63h.01s45.68-46.47,45.68-46.47l-.02-.02c3.66-3.31,8.52-5.32,13.84-5.32,9.03,0,16.72,5.8,19.53,13.87h-.03s23.59,35.63,23.59,35.63h37.84c4.68,0,8.46,3.79,8.46,8.46s-3.78,8.46-8.46,8.46h-46.31c-2.8,0-5.27-1.35-6.81-3.44"/>
    <path class="cls-2" d="M323.39,236.01c-35.05,0-63.46,28.42-63.46,63.47s28.41,63.47,63.46,63.47,63.47-28.42,63.47-63.47-28.41-63.47-63.47-63.47ZM323.39,347.91c-26.73,0-48.41-21.68-48.41-48.43s21.68-48.43,48.41-48.43,48.42,21.68,48.42,48.43-21.68,48.43-48.42,48.43Z"/>
    <path class="cls-2" d="M144.94,236.01c-35.04,0-63.46,28.42-63.46,63.47s28.42,63.47,63.46,63.47,63.47-28.42,63.47-63.47-28.42-63.47-63.47-63.47ZM144.94,347.91c-26.74,0-48.41-21.68-48.41-48.43s21.67-48.43,48.41-48.43,48.41,21.68,48.41,48.43-21.67,48.43-48.41,48.43Z"/>
  </g>
</svg>