<?xml version="1.0" encoding="UTF-8"?>
<svg id="Layer_1" data-name="Layer 1" xmlns="http://www.w3.org/2000/svg" viewBox="0 0 468.33 468.33">
  <defs>
    <style>
      .cls-1 {
        fill: #422426;
      }

      .cls-2 {
        fill: #eee9e0;
      }
    </style>
  </defs>
  <circle class="cls-1" cx="234.16" cy="234.16" r="234.16"/>
  <g>
    <path class="cls-2" d="M213.69,136.41c0,14.08-11.42,25.5-25.5,25.5s-25.5-11.41-25.5-25.5,11.41-25.5,25.5-25.5,25.5,11.42,25.5,25.5Z"/>
    <g>
      <path class="cls-2" d="M378.7,356.51v-27.75c-8.11,0-15.38-2.71-20.28-6.5-4.42-2.15-9.88-3.42-15.79-3.42-6.68,0-12.79,1.62-17.48,4.31l.02.03c-4.87,3.43-11.79,5.57-19.46,5.57-8.11,0-15.37-2.71-20.27-6.5-4.43-2.15-9.89-3.42-15.8-3.42-6.68,0-12.79,1.62-17.48,4.31l.02.03c-4.87,3.43-11.78,5.57-19.46,5.57-8.11,0-15.37-2.4-20.27-6.18-4.42-2.15-9.9-3.1-15.81-3.1-6.68,0-12.79,1.63-17.48,4.32l.02.03c-4.87,3.43-11.79,5.57-19.46,5.57-8.11,0-15.38-2.4-20.28-6.18-4.42-2.16-9.88-3.38-15.79-3.38-6.68,0-12.79,1.63-17.48,4.32l.02.03c-4.25,2.99-10.07,5-16.58,5.47v27.76c6.5-.46,12.32-2.48,16.58-5.47l-.02-.03c4.68-2.69,10.8-4.32,17.48-4.32,5.91,0,11.36,1.23,15.79,3.38,4.9,3.78,12.17,6.18,20.28,6.18,7.67,0,14.58-2.15,19.46-5.57l-.02-.03c4.68-2.69,10.8-4.31,17.48-4.31,5.91,0,11.38.94,15.81,3.1,4.91,3.78,12.17,6.18,20.28,6.18,7.68,0,14.59-2.14,19.46-5.57l-.02-.03c4.68-2.69,10.8-4.32,17.48-4.32,5.91,0,11.37,1.27,15.8,3.42,4.9,3.78,12.16,6.49,20.27,6.49,7.67,0,14.58-2.14,19.46-5.57l-.02-.03c4.69-2.69,10.8-4.32,17.48-4.32,5.91,0,11.36,1.27,15.79,3.42,4.9,3.78,12.17,6.49,20.28,6.49Z"/>
      <path class="cls-2" d="M106.18,303.14c4.68-2.69,10.8-4.31,17.48-4.31,5.91,0,11.37,1.23,15.79,3.37,4.9,3.78,12.17,6.18,20.28,6.18,7.67,0,14.59-2.14,19.46-5.56l-.02-.03c4.68-2.69,10.8-4.32,17.48-4.32,5.91,0,11.39.94,15.81,3.1,4.9,3.78,12.16,6.18,20.27,6.18,7.68,0,14.59-2.14,19.46-5.57l-.02-.03c4.68-2.69,10.8-4.32,17.48-4.32,5.91,0,11.37,1.28,15.8,3.43,4.9,3.78,12.16,6.5,20.27,6.5,7.67,0,14.59-2.14,19.46-5.57l-.02-.03c4.69-2.69,10.8-4.32,17.48-4.32,4.27,0,8.3.68,11.88,1.87,11.14-21.07,9.91-52.01-29.23-80.8-5.21,8.65-11.8,22.2-27.75,27.06h-131.77l15.68-31.21c1.06-4.12,4.8-7.16,9.24-7.16,1.32,0,2.57.27,3.71.75l19.3,12.26-1.69-1.07c2.33,1.83,5.27,2.92,8.46,2.92,4.4,0,8.31-2.08,10.82-5.29l-.05-.03,27.15-41.27.04.04c1.97-2.37,3.15-5.41,3.15-8.74,0-7.57-6.14-13.7-13.7-13.7-3.86,0-7.34,1.59-9.83,4.15,0,0-16.44,23.25-16.44,23.26-2.47,3.63-6.62,6.01-11.34,6.01-3.98,0-7.56-1.7-10.05-4.4v-.02s-26.61-18.18-26.6-18.18c-2.8-1.5-6.01-2.35-9.4-2.35s-6.76.98-9.62,2.58l.27-.22c-.77.43-1.53,1-2.29,1.49-.24.18-.53.31-.76.49-24.49,16.55-45.83,66.04-47.17,79.7h-15v62.7c6.51-.46,12.32-2.47,16.58-5.46l-.02-.03Z"/>
    </g>
  </g>
</svg>