<?xml version="1.0" standalone="no"?>
<!DOCTYPE svg PUBLIC "-//W3C//DTD SVG 20010904//EN"
 "http://www.w3.org/TR/2001/REC-SVG-20010904/DTD/svg10.dtd">
<svg version="1.0" xmlns="http://www.w3.org/2000/svg"
 width="900.000000pt" height="900.000000pt" viewBox="0 0 900.000000 900.000000"
 preserveAspectRatio="xMidYMid meet">
<metadata>
Created by potrace 1.10, written by Peter Selinger 2001-2011
</metadata>
<g transform="translate(0.000000,900.000000) scale(0.100000,-0.100000)"
fill="#422426" stroke="none">
<path d="M4170 8986 c0 -14 -86 -26 -180 -26 -50 0 -220 -24 -320 -46 -36 -8
-74 -14 -84 -14 -39 0 -318 -70 -421 -106 -23 -8 -47 -14 -54 -14 -7 0 -27 -6
-44 -14 -18 -8 -41 -16 -52 -19 -24 -7 -102 -34 -130 -46 -11 -5 -40 -16 -65
-26 -98 -37 -129 -51 -310 -140 -74 -36 -162 -81 -195 -100 -33 -20 -69 -40
-80 -45 -11 -6 -33 -19 -50 -30 -16 -11 -37 -23 -45 -27 -8 -4 -43 -26 -78
-50 -35 -24 -65 -43 -68 -43 -4 0 -78 -53 -109 -78 -5 -4 -38 -27 -73 -51
-119 -80 -395 -320 -546 -475 -104 -106 -292 -326 -387 -451 -82 -109 -196
-278 -229 -340 -6 -11 -19 -33 -30 -50 -64 -100 -234 -442 -285 -575 -9 -25
-23 -57 -31 -72 -8 -14 -14 -35 -14 -45 0 -10 -5 -24 -11 -30 -6 -6 -14 -26
-19 -44 -4 -19 -14 -50 -21 -69 -6 -19 -17 -51 -24 -70 -14 -40 -36 -111 -58
-190 -9 -30 -23 -80 -31 -111 -9 -31 -16 -66 -16 -78 0 -12 -5 -31 -10 -41 -6
-10 -14 -45 -19 -77 -5 -32 -14 -87 -20 -123 -56 -319 -64 -441 -57 -840 3
-184 8 -362 11 -395 11 -122 47 -356 76 -485 6 -25 14 -66 19 -93 5 -26 13
-62 19 -80 5 -17 17 -59 26 -92 9 -33 21 -73 27 -90 5 -16 14 -46 18 -65 9
-35 63 -198 79 -235 5 -11 16 -40 26 -65 29 -78 111 -264 144 -330 33 -65 123
-232 140 -260 11 -19 25 -44 31 -55 6 -11 19 -33 30 -50 11 -16 23 -37 27 -45
4 -8 40 -64 81 -125 211 -311 483 -616 767 -861 44 -38 85 -74 90 -80 6 -6 39
-33 75 -60 36 -26 71 -54 79 -62 8 -7 26 -21 40 -30 14 -9 52 -36 83 -59 31
-24 61 -43 66 -43 6 0 12 -3 14 -7 5 -11 66 -53 77 -53 5 0 11 -4 13 -8 2 -5
55 -39 118 -76 63 -36 122 -71 130 -76 21 -14 305 -153 365 -180 93 -41 110
-48 155 -65 25 -10 54 -21 65 -26 11 -5 54 -20 95 -33 41 -13 86 -29 100 -34
46 -18 200 -62 295 -85 33 -8 83 -21 110 -27 28 -7 70 -16 95 -20 25 -4 70
-12 100 -18 238 -46 388 -57 795 -57 416 0 555 10 795 56 30 6 80 15 110 19
30 4 78 13 105 20 102 25 171 42 210 54 22 7 67 21 100 31 82 24 159 50 225
75 107 41 135 51 161 59 14 5 34 13 45 18 10 6 48 24 84 40 114 53 273 132
335 168 33 19 70 39 83 45 12 5 48 27 80 48 32 21 64 41 72 45 39 19 170 110
325 226 226 169 446 371 628 576 119 135 119 135 172 205 27 36 52 67 55 70 4
3 24 30 45 60 21 30 41 57 45 60 6 5 93 134 115 171 6 10 33 55 61 101 28 45
54 90 58 98 3 8 15 29 26 45 19 29 140 271 165 330 7 17 20 46 28 65 32 75 51
116 64 142 7 14 13 35 13 45 0 10 4 23 9 29 5 5 14 25 19 44 10 33 15 49 47
140 41 117 83 272 119 445 10 44 22 102 28 129 6 27 14 79 19 115 4 36 12 102
18 146 6 44 14 116 18 160 6 56 12 79 21 77 9 -1 12 70 12 329 0 281 -2 333
-15 343 -11 8 -17 47 -25 141 -5 72 -14 146 -20 165 -5 19 -10 50 -10 68 0 19
-6 61 -14 95 -8 34 -22 98 -31 142 -20 92 -40 170 -60 236 -8 26 -15 55 -15
65 0 11 -7 32 -15 48 -8 15 -15 37 -15 48 0 11 -5 29 -12 41 -6 12 -15 35 -19
52 -11 43 -37 117 -49 137 -6 10 -10 25 -10 34 0 9 -6 28 -13 42 -8 15 -21 42
-30 60 -9 19 -17 38 -17 43 0 20 -163 356 -225 464 -19 33 -39 69 -45 80 -6
11 -18 32 -28 47 -9 15 -35 55 -56 90 -22 35 -52 79 -68 99 -15 20 -28 40 -28
43 0 14 -159 217 -279 356 -225 262 -572 578 -801 730 -12 8 -42 30 -66 48
-23 17 -45 32 -48 32 -3 0 -33 19 -68 43 -35 24 -70 46 -78 50 -8 4 -28 16
-45 27 -16 11 -39 24 -50 30 -11 5 -47 25 -80 44 -62 36 -220 115 -335 168
-76 35 -87 40 -160 68 -30 12 -64 26 -75 31 -35 15 -109 40 -135 46 -14 3 -31
10 -38 16 -7 5 -29 13 -50 17 -20 5 -53 13 -72 20 -80 27 -97 32 -130 40 -65
14 -135 32 -168 42 -19 5 -57 14 -85 18 -29 4 -77 12 -107 18 -112 21 -278 41
-380 46 -78 4 -108 9 -116 21 -10 13 -55 15 -328 15 -259 0 -316 -2 -316 -14z
m427 -1302 c87 -38 107 -51 143 -92 21 -24 49 -62 62 -85 22 -41 23 -49 23
-317 l0 -275 -334 -3 c-192 -1 -339 2 -344 7 -5 5 -9 117 -8 250 0 240 8 306
38 342 7 8 13 20 13 25 0 17 94 102 135 122 78 37 91 41 162 41 46 1 86 -5
110 -15z m1591 -931 c15 -9 145 -135 290 -278 l262 -262 0 -46 0 -46 -257
-255 c-142 -140 -269 -263 -283 -274 -24 -19 -71 -19 -1902 -23 l-1877 -4 -30
29 c-24 23 -31 38 -31 68 0 41 11 58 177 265 160 199 153 188 153 241 0 34 -5
54 -16 63 -9 8 -43 47 -75 89 -33 41 -86 109 -119 150 -118 146 -120 150 -120
196 0 37 5 47 37 73 l38 31 1863 0 c1739 0 1865 -1 1890 -17z m-1360 -1442 c2
-67 -1 -108 -9 -117 -9 -11 -69 -14 -328 -14 -181 0 -322 4 -331 10 -11 7 -16
34 -18 105 -2 52 -1 102 2 110 5 13 52 15 343 13 l338 -3 3 -104z m1721 -270
c41 -22 69 -80 56 -120 -6 -21 -97 -146 -120 -166 -7 -5 -33 -38 -60 -73 -26
-35 -58 -75 -71 -89 -44 -47 -84 -116 -83 -142 1 -35 23 -68 154 -226 217
-264 223 -274 166 -337 l-29 -33 -1879 0 -1880 0 -34 27 c-19 14 -145 136
-282 270 l-247 243 0 44 0 44 268 269 c173 175 281 276 307 288 38 18 109 18
1868 19 1786 1 1829 1 1866 -18z m-1721 -1339 c1 -4 3 -388 5 -853 l2 -844
225 -5 c183 -4 232 -8 260 -22 38 -18 100 -71 100 -86 0 -5 7 -15 15 -22 12
-10 15 -41 15 -164 -1 -141 -2 -153 -23 -178 -49 -60 -18 -58 -928 -58 -608 0
-842 3 -871 12 -25 7 -50 25 -69 49 -29 37 -29 38 -29 166 0 108 3 135 20 167
28 55 58 86 110 110 40 19 68 22 265 26 l220 5 3 852 c2 785 3 852 19 855 36
7 658 -2 661 -10z"/>
</g>
</svg>
