<?xml version="1.0" encoding="UTF-8"?>
<svg id="Layer_1" data-name="Layer 1" xmlns="http://www.w3.org/2000/svg" viewBox="0 0 468.33 468.33">
  <defs>
    <style>
      .cls-1 {
        fill: #422426;
      }

      .cls-2 {
        fill: #eee9e0;
      }
    </style>
  </defs>
  <circle class="cls-1" cx="234.16" cy="234.16" r="234.16"/>
  <g>
    <path class="cls-2" d="M406.41,358.33v-33.16c-9.69,0-18.37-3.24-24.23-7.76-5.28-2.57-11.81-4.08-18.86-4.08-7.98,0-15.28,1.95-20.88,5.16l.03.04c-5.82,4.09-14.08,6.65-23.24,6.65-9.69,0-18.37-3.24-24.22-7.76-5.28-2.57-11.81-4.08-18.87-4.08-7.98,0-15.28,1.95-20.88,5.16l.03.04c-5.81,4.09-14.08,6.65-23.25,6.65-9.69,0-18.37-2.86-24.22-7.38-5.28-2.56-11.83-3.69-18.89-3.69-7.98,0-15.28,1.95-20.88,5.16l.03.04c-5.82,4.09-14.09,6.65-23.25,6.65-9.69,0-18.37-2.86-24.23-7.38-5.28-2.57-11.8-4.03-18.86-4.03-7.98,0-15.28,1.94-20.88,5.15l.03.04c-5.08,3.58-12.03,5.98-19.8,6.53v33.16c7.77-.55,14.72-2.96,19.8-6.54l-.03-.04c5.59-3.21,12.9-5.16,20.88-5.16,7.06,0,13.57,1.46,18.86,4.03,5.86,4.52,14.55,7.38,24.23,7.38,9.16,0,17.42-2.56,23.25-6.65l-.03-.04c5.59-3.21,12.9-5.15,20.88-5.15,7.06,0,13.6,1.13,18.88,3.69,5.86,4.52,14.54,7.38,24.23,7.38,9.17,0,17.43-2.55,23.25-6.65l-.03-.04c5.59-3.21,12.9-5.16,20.88-5.16,7.06,0,13.58,1.52,18.87,4.08,5.85,4.52,14.53,7.76,24.22,7.76,9.15,0,17.42-2.55,23.24-6.65l-.03-.04c5.6-3.21,12.9-5.16,20.88-5.16,7.06,0,13.57,1.52,18.86,4.08,5.86,4.52,14.54,7.76,24.23,7.76Z"/>
    <path class="cls-2" d="M378.23,217.63c0,20.94-16.98,37.92-37.92,37.92s-37.92-16.98-37.92-37.92,16.98-37.92,37.92-37.92,37.92,16.98,37.92,37.92Z"/>
    <g>
      <path class="cls-2" d="M316.45,128.09c.1-.03.21-.01.31-.03l.44-.09-.74.12Z"/>
      <path class="cls-2" d="M216.34,219.73l-101.28,58.19c1.95.58,3.83,1.26,5.54,2.09,5.85,4.52,14.54,7.38,24.23,7.38,9.16,0,17.42-2.55,23.25-6.64l-.03-.04c5.59-3.21,12.9-5.16,20.88-5.16,7.06,0,13.61,1.13,18.89,3.7,5.85,4.52,14.53,7.38,24.22,7.38,9.17,0,17.43-2.56,23.25-6.65l-.03-.04c5.59-3.21,12.9-5.16,20.88-5.16,7.06,0,13.58,1.52,18.87,4.09,5.47,4.22,13.45,7.21,22.36,7.6l-64.21-117.12,68.02-12.85c12.93,0,23.42-10.48,23.42-23.42s-10.48-23.42-23.42-23.42c-1.51,0-2.98.17-4.41.45l-103.18,18.62c-12.93,0-23.42,10.48-23.42,23.42,0,4.88,1.49,9.4,4.04,13.15h0s26.12,32.31,26.12,32.31c1.75,2.57,2.85,5.78,2.85,9.13,0,5.39-2.74,10.07-6.82,12.99Z"/>
    </g>
  </g>
</svg>