<?xml version="1.0" encoding="UTF-8"?>
<svg id="Layer_1" data-name="Layer 1" xmlns="http://www.w3.org/2000/svg" viewBox="0 0 468.33 468.33">
  <defs>
    <style>
      .cls-1 {
        fill: #422426;
      }

      .cls-2 {
        fill: #eee9e0;
      }
    </style>
  </defs>
  <circle class="cls-1" cx="234.16" cy="234.16" r="234.16"/>
  <g>
    <polygon class="cls-2" points="201.86 238.83 200.74 238.14 204.89 240.68 201.86 238.83"/>
    <path class="cls-2" d="M359.62,276.84c-4.2-12.04-8.21-25.76-8.38-41.83,0-.43-.03-.58-.03-.58.05-8.39,1.77-13.03,3.92-19.13,2.18-6.03,4.77-13.48,4.73-24.32,0-2.66-.15-5.54-.46-8.67.78-.04,1.56-.09,2.34-.13-1.16-20.3-7.37-39.85-17.86-56.96-2.71,1.66-5.42,3.33-8.12,4.99-3.89-6.31-8.38-12.27-13.5-17.76-3.49,3.25-6.98,6.48-10.47,9.73,4.46,4.81,8.4,10,11.77,15.52,2.55,4.13,4.76,8.44,6.66,12.89,4.42,10.39,7.06,21.53,7.72,32.98,2.56-.15,5.14-.3,7.71-.44.31,2.93.46,5.56.46,7.87-.05,8.82-1.78,13.62-3.93,19.69-2.15,5.97-4.76,13.26-4.72,23.76.01.44.02.71.02.82.18,18.21,4.79,33.6,9.14,46.11,4.44,12.45,8.28,22.37,8.13,28.07-.17,3.65-.71,5.21-3.71,7.82-2.78,2.2-4.82,2.76-6.41,2.77-3.07.23-8.27-3.17-12.66-12.78-4.32-9.36-7.26-23.52-7.24-40.26,0-3.34.12-6.8.37-10.34.74-11.3,1.08-21.09,1.1-29.61-.1-26.89-3.21-41.24-9.17-50.26-4.22-6.55-10.36-8.88-15.28-9.62v-42.92c0-15.18-12.3-27.49-27.49-27.49h-98.97c-15.19,0-27.49,12.31-27.49,27.49v219.93h-21.99v27.49h197.94v-27.49h-22v-163.01c1.3.46,2.42,1.36,3.91,3.34,3.2,4.47,6.88,16.8,6.79,42.55.01,8.14-.33,17.65-1.06,28.69-.26,3.83-.39,7.6-.39,11.27.01,18.33,3.07,34.14,8.47,45.98,5.31,11.57,13.5,20.58,25.17,20.82,5.32,0,10.49-2.18,15.02-5.81,6.11-4.71,9.01-11.87,8.85-18.53-.16-10.42-4.77-20.48-8.89-32.59ZM277.26,249.97l-.1.15s0,0,0-.01c-19.26,31.31-61.42,64.93-84.96,50.49-21.86-13.4-4.12-51.28,4.74-64.79l-2.92-1.79c-.68-.42-.89-1.3-.47-1.97l10.21-16.66-7.67-4.7c-.71-.35-1.01-1.21-.66-1.92l13.41-27.35-2.61-1.6c-1.03-.64-1.6-1.59-1.26-2.13l4.35-7.09c.33-.54,1.44-.47,2.47.16l12.94,7.93-1.67-1.02,10.81-17.63,4.45,2.73-10.81,17.63,7.39,4.53,7.39,4.53,10.81-17.63,4.45,2.72-10.81,17.63,11.28,6.91c1.03.63,1.6,1.59,1.27,2.13l-4.35,7.09c-.33.55-1.44.47-2.47-.16l-2.61-1.6-18.29,24.36c-.48.63-1.38.76-2.01.29,0,0-3.73-2.29-7.67-4.7l-10.21,16.66c-.42.68-1.3.89-1.98.47l-3.31-2.03c-8.86,13.51-23.78,40.99-8.78,50.19,16.95,10.39,50.23-16.38,71.31-46.92l-.09.15c.78-1.27,3.27-1.15,5.57.26,2.29,1.41,3.53,3.57,2.76,4.84.03-.05.06-.09.09-.14Z"/>
  </g>
</svg>