<?xml version="1.0" encoding="UTF-8"?>
<svg id="Layer_1" data-name="Layer 1" xmlns="http://www.w3.org/2000/svg" viewBox="0 0 468.33 468.33">
  <defs>
    <style>
      .cls-1 {
        fill: #422426;
      }

      .cls-2 {
        fill: #eee9e0;
      }
    </style>
  </defs>
  <circle class="cls-1" cx="234.16" cy="234.16" r="234.16"/>
  <path class="cls-2" d="M331.12,191.39c-.49-1.33-.22-2.87.67-3.87,2.04-2.29,4.17-4.81,6.34-7.48.08-.1.17-.2.27-.29,7.68-7.39,17.4-11.08,27.35-10.35l.32.02c1.04.07,1.97.77,2.45,1.84.49,1.07.46,2.36-.07,3.4-4.68,9.2-10.11,15.11-16.15,17.56-2.68,1.09-7.54,1.12-12.25,1.15-1.89.01-3.91.02-6.07.13-.04,0-.08,0-.12,0-1.19,0-2.27-.83-2.74-2.11ZM341.16,186.4c3.51-.03,7.62-.12,9.18-.75,3.5-1.42,6.83-4.52,9.93-9.23-6.55.7-12.78,3.65-17.94,8.56-.39.48-.78.96-1.17,1.42ZM130.22,187.51c.89,1,1.16,2.54.67,3.87-.47,1.28-1.55,2.11-2.74,2.11-.04,0-.08,0-.12,0-2.16-.1-4.18-.12-5.97-.13-4.8-.03-9.66-.06-12.34-1.15-6.04-2.45-11.47-8.36-16.15-17.56-.53-1.04-.56-2.33-.07-3.4.49-1.07,1.41-1.77,2.45-1.84l.31-.02h0c9.95-.72,19.67,2.96,27.35,10.35.1.09.18.19.27.29,2.18,2.68,4.31,5.19,6.34,7.48ZM101.74,176.42c3.1,4.72,6.43,7.81,9.93,9.23,1.57.64,5.73.72,9.18.75-.39-.47-.78-.94-1.17-1.42-5.16-4.91-11.39-7.86-17.94-8.56ZM260.13,406.91h-59.03c-16.13,0-29.25-15.31-29.25-34.13v-12.34c0-4.57.96-8.88,2.63-12.7l-11.58-50.98c-3.03-11.29-6.37-21.39-10.17-30.71-.61-1.48-1.23-2.96-1.86-4.43-4.14-9.51-6.24-19.44-6.24-29.51,0-2.15-.02-4.26-.03-6.31,0-1.12-.02-2.23-.02-3.33-2.76-9.22-10.48-9.98-22.67-10.05-6.05-.04-12.3-.07-17.55-2.2-19.4-7.87-28.86-32.47-32.77-46.43-.78-2.77-.42-5.74.98-8.14,1.4-2.41,3.64-3.9,6.14-4.08l16.55-1.19c14.53-1.05,28.61,4.48,39.65,15.55.08.08.16.17.23.25,4.5,5.58,12.35,14.46,17.09,18.12,2.5-3.8,5.79-7.4,10.15-10.78-14-9.46-54.31-41.4-41.26-88.38.58-2.09,2.29-3.46,4.18-3.28,1.89.16,3.43,1.78,3.75,3.95l.26,1.81c2.05,14.61,6.86,48.67,57.44,54.78,1.93-1.6,4.26-2.58,6.77-2.75,6.36-.42,9.11-1.36,11.11-2.53.65-.38,1.22-.78,1.82-1.2.73-.52,1.57-1.1,2.56-1.67,2.91-1.64,5.83-3.2,9.64-4.21,4.81-1.27,19.69-1.27,24.5,0,3.81,1,6.74,2.56,9.64,4.21,1,.57,1.83,1.15,2.57,1.67,2.42,1.7,4.5,3.17,12.93,3.73,2.51.17,4.85,1.15,6.77,2.75,50.58-6.11,55.39-40.17,57.44-54.78l.26-1.81c.32-2.17,1.86-3.79,3.75-3.95,1.9-.16,3.6,1.19,4.18,3.28,13.06,46.98-27.26,78.92-41.26,88.38,4.4,3.41,7.72,7.04,10.22,10.88,4.73-3.59,12.68-12.59,17.22-18.22.07-.09.15-.17.23-.25,11.04-11.08,25.11-16.6,39.65-15.55l16.55,1.19c2.5.18,4.74,1.67,6.14,4.08,1.4,2.41,1.76,5.38.98,8.14-3.91,13.96-13.37,38.56-32.77,46.43-5.25,2.13-11.5,2.17-17.55,2.2-12.49.07-20.29.85-22.87,10.74,0,.88-.01,1.76-.02,2.65-.02,2.05-.03,4.16-.03,6.31,0,10.07-2.1,20-6.24,29.51-.64,1.47-1.26,2.94-1.86,4.43-3.8,9.3-7.14,19.39-10.21,30.85l-13.63,48.96c2.6,4.66,4.13,10.21,4.13,16.17v10.75c0,18.82-13.12,34.13-29.25,34.13Z"/>
</svg>