<?xml version="1.0" encoding="UTF-8"?>
<svg id="Layer_1" data-name="Layer 1" xmlns="http://www.w3.org/2000/svg" viewBox="0 0 468.33 468.33">
  <defs>
    <style>
      .cls-1 {
        fill: #422426;
      }

      .cls-2 {
        fill: #eee8df;
      }
    </style>
  </defs>
  <circle class="cls-1" cx="234.16" cy="234.16" r="234.16"/>
  <g>
    <path class="cls-2" d="M184.79,178.92c0,6.36,5.15,11.51,11.51,11.51s11.51-5.16,11.51-11.51-5.15-11.52-11.51-11.52-11.51,5.15-11.51,11.52Z"/>
    <path class="cls-2" d="M178.6,269.14c15.35,1.05,38.03,25.12,47.1,36.29h-55.48c18.84,31.4,132.94,55.48,185.62,55.13v-140.26c-24.77-1.05-149.33,3.84-177.24,48.85ZM246.99,280.41c-5.26,0-9.53-4.26-9.53-9.52s4.26-9.53,9.53-9.53,9.52,4.27,9.52,9.53-4.26,9.52-9.52,9.52Z"/>
    <path class="cls-2" d="M193.34,190.44l-7.95-8-62.23,62.22.05.03c-2.55,3.21-6.5,5.26-10.91,5.26-7.71,0-13.95-6.25-13.95-13.95,0-6.74,4.79-12.38,11.14-13.67l-.31.09,1.04,6.61,18.44-26.17s-28.77,10.52-28.77,10.51c-7.98,4.39-13.39,12.88-13.39,22.64,0,14.26,11.56,25.82,25.82,25.82,6.2,0,11.9-2.19,16.34-5.83l64.69-65.55Z"/>
    <path class="cls-2" d="M348.34,107.94c-44.84-2.78-117.76,28.97-148.12,59.47l7.59,9.62c30.36-30.5,96.39-56.17,140.53-54.09,4.14,0,7.5-3.36,7.5-7.5s-3.36-7.5-7.5-7.5c-.65,0-1.28.08-1.88.23"/>
  </g>
</svg>