<?xml version="1.0" encoding="UTF-8"?>
<svg id="Layer_1" data-name="Layer 1" xmlns="http://www.w3.org/2000/svg" viewBox="0 0 468.33 468.33">
  <defs>
    <style>
      .cls-1 {
        fill: #422426;
      }

      .cls-2 {
        fill: #eee9e0;
      }
    </style>
  </defs>
  <circle class="cls-1" cx="234.16" cy="234.16" r="234.16"/>
  <g>
    <path class="cls-2" d="M152.05,225.14c0,6.93-5.61,12.55-12.54,12.55s-12.55-5.62-12.55-12.55,5.61-12.55,12.55-12.55,12.54,5.62,12.54,12.55Z"/>
    <g>
      <rect class="cls-2" x="94.37" y="147.43" width="26.42" height="173.47"/>
      <rect class="cls-2" x="347.54" y="253.1" width="26.42" height="67.81"/>
      <rect class="cls-2" x="101.42" y="253.1" width="252.28" height="26.42"/>
      <path class="cls-2" d="M177.58,185.07c0,13.25-10.74,23.99-24,23.99s-23.99-10.74-23.99-23.99,10.74-24,23.99-24,24,10.74,24,24Z"/>
      <rect class="cls-2" x="139.5" y="212.59" width="234.45" height="25.09"/>
      <polygon class="cls-2" points="373.95 212.59 184.63 212.59 184.63 176.48 373.95 194.54 373.95 212.59"/>
    </g>
  </g>
</svg>