<?xml version="1.0" encoding="UTF-8"?>
<svg id="Layer_1" data-name="Layer 1" xmlns="http://www.w3.org/2000/svg" viewBox="0 0 468.33 468.33">
  <defs>
    <style>
      .cls-1 {
        fill: #422426;
      }

      .cls-2 {
        fill: #eee9e0;
      }
    </style>
  </defs>
  <circle class="cls-1" cx="234.16" cy="234.16" r="234.16"/>
  <path class="cls-2" d="M315.88,257.27h-32.56v-46.21h32.56c32.32,0,58.61-26.3,58.61-58.61s-26.3-58.61-58.61-58.61-58.61,26.3-58.61,58.61v32.56h-46.21v-32.56c0-32.32-26.3-58.61-58.61-58.61s-58.61,26.3-58.61,58.61,26.3,58.61,58.61,58.61h32.56v46.21h-32.56c-32.32,0-58.61,26.3-58.61,58.61s26.3,58.61,58.61,58.61,58.61-26.3,58.61-58.61v-32.56h46.21v32.56c0,32.32,26.3,58.61,58.61,58.61s58.61-26.3,58.61-58.61-26.3-58.61-58.61-58.61ZM283.32,152.45c0-17.95,14.61-32.56,32.56-32.56s32.56,14.61,32.56,32.56-14.61,32.56-32.56,32.56h-32.56v-32.56ZM185.01,315.88c0,17.95-14.61,32.56-32.56,32.56s-32.56-14.61-32.56-32.56,14.61-32.56,32.56-32.56h32.56v32.56ZM285.06,266.05c-.59.37-1.17.74-1.74,1.12h0c.57-.39,1.15-.76,1.74-1.12ZM267.17,185.01h0c-.38-.57-.76-1.15-1.12-1.74.37.59.74,1.17,1.12,1.74ZM119.89,152.45c0-17.95,14.61-32.56,32.56-32.56s32.56,14.61,32.56,32.56v32.56h-32.56c-17.95,0-32.56-14.61-32.56-32.56ZM183.27,202.28c.59-.37,1.17-.74,1.74-1.12h0c-.57.39-1.15.76-1.74,1.12ZM201.15,283.32h0c.38.57.76,1.15,1.12,1.74-.37-.59-.74-1.17-1.12-1.74ZM257.27,257.27h-46.21v-46.21h46.21v46.21ZM315.88,348.44c-17.95,0-32.56-14.61-32.56-32.56v-32.56h32.56c17.95,0,32.56,14.61,32.56,32.56s-14.61,32.56-32.56,32.56Z"/>
</svg>